<svg width="17" height="17" viewBox="0 0 17 17" fill="none" xmlns="http://www.w3.org/2000/svg">
<path d="M8.5 15C8.2369 15 8.01652 14.9109 7.83886 14.7326C7.66057 14.5549 7.57143 14.3345 7.57143 14.0714V9.42857H2.92857C2.66548 9.42857 2.44479 9.33943 2.2665 9.16114C2.08883 8.98348 2 8.7631 2 8.5C2 8.2369 2.08883 8.01621 2.2665 7.83793C2.44479 7.66026 2.66548 7.57143 2.92857 7.57143H7.57143V2.92857C7.57143 2.66548 7.66057 2.44479 7.83886 2.2665C8.01652 2.08883 8.2369 2 8.5 2C8.7631 2 8.98379 2.08883 9.16207 2.2665C9.33974 2.44479 9.42857 2.66548 9.42857 2.92857V7.57143H14.0714C14.3345 7.57143 14.5549 7.66026 14.7326 7.83793C14.9109 8.01621 15 8.2369 15 8.5C15 8.7631 14.9109 8.98348 14.7326 9.16114C14.5549 9.33943 14.3345 9.42857 14.0714 9.42857H9.42857V14.0714C9.42857 14.3345 9.33974 14.5549 9.16207 14.7326C8.98379 14.9109 8.7631 15 8.5 15Z" fill="#5487E4"/>
</svg>
