<svg width="26" height="26" viewBox="0 0 26 26" fill="none" xmlns="http://www.w3.org/2000/svg">
<path d="M13 1C19.6274 1 25 6.37258 25 13C25 19.6274 19.6274 25 13 25C6.37258 25 1 19.6274 1 13C1 6.37258 6.37258 1 13 1ZM20.1904 8.14355C19.5653 7.60056 18.6176 7.66615 18.0742 8.29102L10.9004 16.54L7.48438 12.8135C6.92452 12.2034 5.97571 12.1621 5.36523 12.7217C4.75489 13.2814 4.71415 14.2302 5.27344 14.8408L9.8252 19.8066C10.1138 20.1213 10.5233 20.2984 10.9502 20.293C11.3773 20.2874 11.7821 20.0996 12.0625 19.7773L20.3389 10.2598C20.8822 9.63463 20.8155 8.68708 20.1904 8.14355Z" fill="#5487E4"/>
</svg>
