<svg width="20" height="20" viewBox="0 0 20 20" fill="none" xmlns="http://www.w3.org/2000/svg">
<path d="M10 2C14.4183 2 18 5.58172 18 10C18 14.4183 14.4183 18 10 18C5.58172 18 2 14.4183 2 10C2 5.58172 5.58172 2 10 2ZM14.6299 6.95117C14.3173 6.67954 13.843 6.71288 13.5713 7.02539L8.60547 12.7363L6.13867 10.0449C5.85877 9.73985 5.38436 9.71927 5.0791 9.99902C4.7741 10.2789 4.75348 10.7534 5.0332 11.0586L8.06738 14.3691C8.2116 14.5265 8.4165 14.6149 8.62988 14.6123C8.84337 14.6095 9.04634 14.5155 9.18652 14.3545L14.7041 8.00977C14.9757 7.6972 14.9424 7.22291 14.6299 6.95117Z" fill="#D9D9D9"/>
</svg>
