<svg width="20" height="20" viewBox="0 0 20 20" fill="none" xmlns="http://www.w3.org/2000/svg">
<path d="M10 11.2776L5.52852 15.749C5.36122 15.9163 5.14829 16 4.88973 16C4.63118 16 4.41825 15.9163 4.25095 15.749C4.08365 15.5817 4 15.3688 4 15.1103C4 14.8517 4.08365 14.6388 4.25095 14.4715L8.72243 10L4.25095 5.52852C4.08365 5.36122 4 5.14829 4 4.88973C4 4.63118 4.08365 4.41825 4.25095 4.25095C4.41825 4.08365 4.63118 4 4.88973 4C5.14829 4 5.36122 4.08365 5.52852 4.25095L10 8.72243L14.4715 4.25095C14.6388 4.08365 14.8517 4 15.1103 4C15.3688 4 15.5817 4.08365 15.749 4.25095C15.9163 4.41825 16 4.63118 16 4.88973C16 5.14829 15.9163 5.36122 15.749 5.52852L11.2776 10L15.749 14.4715C15.9163 14.6388 16 14.8517 16 15.1103C16 15.3688 15.9163 15.5817 15.749 15.749C15.5817 15.9163 15.3688 16 15.1103 16C14.8517 16 14.6388 15.9163 14.4715 15.749L10 11.2776Z" fill="#666666"/>
</svg>
