<svg width="12" height="12" viewBox="0 0 12 12" fill="none" xmlns="http://www.w3.org/2000/svg">
<path opacity="0.88" d="M6 6.85171L3.01901 9.8327C2.90748 9.94423 2.76553 10 2.59316 10C2.42079 10 2.27883 9.94423 2.1673 9.8327C2.05577 9.72117 2 9.57921 2 9.40684C2 9.23447 2.05577 9.09252 2.1673 8.98099L5.14829 6L2.1673 3.01901C2.05577 2.90748 2 2.76553 2 2.59316C2 2.42079 2.05577 2.27883 2.1673 2.1673C2.27883 2.05577 2.42079 2 2.59316 2C2.76553 2 2.90748 2.05577 3.01901 2.1673L6 5.14829L8.98099 2.1673C9.09252 2.05577 9.23447 2 9.40684 2C9.57921 2 9.72117 2.05577 9.8327 2.1673C9.94423 2.27883 10 2.42079 10 2.59316C10 2.76553 9.94423 2.90748 9.8327 3.01901L6.85171 6L9.8327 8.98099C9.94423 9.09252 10 9.23447 10 9.40684C10 9.57921 9.94423 9.72117 9.8327 9.8327C9.72117 9.94423 9.57921 10 9.40684 10C9.23447 10 9.09252 9.94423 8.98099 9.8327L6 6.85171Z" fill="#888888"/>
</svg>
