<svg width="14" height="14" viewBox="0 0 14 14" fill="none" xmlns="http://www.w3.org/2000/svg">
<path d="M7 8.06464L3.27376 11.7909C3.13435 11.9303 2.95691 12 2.74144 12C2.52598 12 2.34854 11.9303 2.20913 11.7909C2.06971 11.6515 2 11.474 2 11.2586C2 11.0431 2.06971 10.8657 2.20913 10.7262L5.93536 7L2.20913 3.27376C2.06971 3.13435 2 2.95691 2 2.74144C2 2.52598 2.06971 2.34854 2.20913 2.20913C2.34854 2.06971 2.52598 2 2.74144 2C2.95691 2 3.13435 2.06971 3.27376 2.20913L7 5.93536L10.7262 2.20913C10.8657 2.06971 11.0431 2 11.2586 2C11.474 2 11.6515 2.06971 11.7909 2.20913C11.9303 2.34854 12 2.52598 12 2.74144C12 2.95691 11.9303 3.13435 11.7909 3.27376L8.06464 7L11.7909 10.7262C11.9303 10.8657 12 11.0431 12 11.2586C12 11.474 11.9303 11.6515 11.7909 11.7909C11.6515 11.9303 11.474 12 11.2586 12C11.0431 12 10.8657 11.9303 10.7262 11.7909L7 8.06464Z" fill="black"/>
</svg>
