<svg width="21" height="20" viewBox="0 0 21 20" fill="none" xmlns="http://www.w3.org/2000/svg">
<path d="M8.28624 12.7333C8.11999 12.7333 7.95374 12.675 7.82249 12.55C7.10499 11.8667 6.71124 10.9583 6.71124 10C6.71124 8.00833 8.40874 6.39166 10.5 6.39166C11.5062 6.39166 12.46 6.76666 13.1775 7.45C13.3 7.56666 13.37 7.725 13.37 7.89166C13.37 8.05833 13.3 8.21666 13.1775 8.33333L8.74999 12.55C8.61874 12.675 8.45249 12.7333 8.28624 12.7333ZM10.5 7.64166C9.13499 7.64166 8.02374 8.7 8.02374 10C8.02374 10.4167 8.13749 10.8167 8.34749 11.1667L11.725 7.95C11.3575 7.75 10.9375 7.64166 10.5 7.64166Z" fill="#9D9D9D"/>
<path d="M4.89999 15.425C4.75124 15.425 4.59374 15.375 4.47124 15.275C3.53499 14.5167 2.69499 13.5833 1.97749 12.5C1.04999 11.125 1.04999 8.88334 1.97749 7.5C4.11249 4.31667 7.21874 2.48334 10.5 2.48334C12.425 2.48334 14.3237 3.11667 15.9862 4.30834C16.275 4.51667 16.3362 4.90834 16.1175 5.18334C15.8987 5.45834 15.4875 5.51667 15.1987 5.30834C13.7637 4.275 12.1362 3.73334 10.5 3.73334C7.67374 3.73334 4.96999 5.35 3.07999 8.175C2.42374 9.15 2.42374 10.85 3.07999 11.825C3.73624 12.8 4.48874 13.6417 5.31999 14.325C5.59124 14.55 5.62624 14.9417 5.38999 15.2083C5.26749 15.35 5.08374 15.425 4.89999 15.425Z" fill="#9D9D9D"/>
<path d="M10.5 17.5167C9.33624 17.5167 8.19874 17.2917 7.10499 16.85C6.77249 16.7167 6.61499 16.35 6.75499 16.0333C6.89499 15.7167 7.27999 15.5667 7.61249 15.7C8.53999 16.075 9.51124 16.2667 10.4912 16.2667C13.3175 16.2667 16.0212 14.65 17.9112 11.825C18.5675 10.85 18.5675 9.15001 17.9112 8.17501C17.64 7.76668 17.3425 7.37501 17.0275 7.00834C16.8 6.74168 16.8437 6.35001 17.1237 6.12501C17.4037 5.90834 17.815 5.94168 18.0512 6.21668C18.3925 6.61668 18.725 7.05001 19.0225 7.50001C19.95 8.87501 19.95 11.1167 19.0225 12.5C16.8875 15.6833 13.7812 17.5167 10.5 17.5167Z" fill="#9D9D9D"/>
<path d="M11.1038 13.5583C10.7975 13.5583 10.5175 13.35 10.4563 13.05C10.3863 12.7083 10.6225 12.3833 10.9813 12.325C11.9438 12.1583 12.7488 11.3917 12.9238 10.475C12.9938 10.1333 13.335 9.91668 13.6938 9.97501C14.0525 10.0417 14.2888 10.3667 14.2188 10.7083C13.9388 12.15 12.7313 13.2917 11.2263 13.5583C11.1825 13.55 11.1475 13.5583 11.1038 13.5583Z" fill="#9D9D9D"/>
<path d="M1.75001 18.9583C1.58376 18.9583 1.41751 18.9 1.28626 18.775C1.03251 18.5333 1.03251 18.1333 1.28626 17.8917L7.82251 11.6667C8.07626 11.425 8.49626 11.425 8.75001 11.6667C9.00376 11.9083 9.00376 12.3083 8.75001 12.55L2.21376 18.775C2.08251 18.9 1.91626 18.9583 1.75001 18.9583Z" fill="#9D9D9D"/>
<path d="M12.7138 8.51668C12.5475 8.51668 12.3813 8.45835 12.25 8.33335C11.9963 8.09168 11.9963 7.69168 12.25 7.45001L18.7863 1.22501C19.04 0.983346 19.46 0.983346 19.7138 1.22501C19.9675 1.46668 19.9675 1.86668 19.7138 2.10835L13.1775 8.33335C13.0463 8.45835 12.88 8.51668 12.7138 8.51668Z" fill="#9D9D9D"/>
</svg>
