<svg width="21" height="20" viewBox="0 0 21 20" fill="none" xmlns="http://www.w3.org/2000/svg">
<path d="M10.5 13.6083C8.40874 13.6083 6.71124 11.9917 6.71124 10C6.71124 8.00833 8.40874 6.39166 10.5 6.39166C12.5912 6.39166 14.2887 8.00833 14.2887 10C14.2887 11.9917 12.5912 13.6083 10.5 13.6083ZM10.5 7.64166C9.13499 7.64166 8.02374 8.7 8.02374 10C8.02374 11.3 9.13499 12.3583 10.5 12.3583C11.865 12.3583 12.9762 11.3 12.9762 10C12.9762 8.7 11.865 7.64166 10.5 7.64166Z" fill="#9D9D9D"/>
<path d="M10.5 17.5167C7.21001 17.5167 4.10376 15.6833 1.96876 12.5C1.04126 11.125 1.04126 8.88334 1.96876 7.5C4.11251 4.31667 7.21876 2.48334 10.5 2.48334C13.7813 2.48334 16.8875 4.31667 19.0225 7.5C19.95 8.875 19.95 11.1167 19.0225 12.5C16.8875 15.6833 13.7813 17.5167 10.5 17.5167ZM10.5 3.73334C7.67376 3.73334 4.97001 5.35 3.08001 8.175C2.42376 9.15 2.42376 10.85 3.08001 11.825C4.97001 14.65 7.67376 16.2667 10.5 16.2667C13.3263 16.2667 16.03 14.65 17.92 11.825C18.5763 10.85 18.5763 9.15 17.92 8.175C16.03 5.35 13.3263 3.73334 10.5 3.73334Z" fill="#9D9D9D"/>
</svg>
