<svg width="17" height="17" viewBox="0 0 17 17" fill="none" xmlns="http://www.w3.org/2000/svg">
<path d="M8.4625 13C8.725 13 8.947 12.9092 9.1285 12.7277C9.3095 12.5467 9.4 12.325 9.4 12.0625C9.4 11.8 9.3095 11.5783 9.1285 11.3973C8.947 11.2158 8.725 11.125 8.4625 11.125C8.2 11.125 7.978 11.2158 7.7965 11.3973C7.6155 11.5783 7.525 11.8 7.525 12.0625C7.525 12.325 7.6155 12.5467 7.7965 12.7277C7.978 12.9092 8.2 13 8.4625 13ZM8.575 5.275C8.925 5.275 9.20625 5.37175 9.41875 5.56525C9.63125 5.75925 9.7375 6.0125 9.7375 6.325C9.7375 6.5375 9.66575 6.753 9.52225 6.9715C9.37825 7.1905 9.175 7.41875 8.9125 7.65625C8.5375 7.98125 8.2625 8.29375 8.0875 8.59375C7.9125 8.89375 7.825 9.19375 7.825 9.49375C7.825 9.66875 7.89075 9.8155 8.02225 9.934C8.15325 10.053 8.30625 10.1125 8.48125 10.1125C8.65625 10.1125 8.8125 10.05 8.95 9.925C9.0875 9.8 9.175 9.64375 9.2125 9.45625C9.25 9.24375 9.3345 9.047 9.466 8.866C9.597 8.6845 9.8125 8.45 10.1125 8.1625C10.5 7.8 10.772 7.46875 10.9285 7.16875C11.0845 6.86875 11.1625 6.5375 11.1625 6.175C11.1625 5.5375 10.922 5.0155 10.441 4.609C9.9595 4.203 9.3375 4 8.575 4C8.05 4 7.5845 4.1 7.1785 4.3C6.772 4.5 6.45625 4.80625 6.23125 5.21875C6.14375 5.38125 6.1125 5.5405 6.1375 5.6965C6.1625 5.853 6.25 5.98125 6.4 6.08125C6.5625 6.18125 6.74075 6.2125 6.93475 6.175C7.12825 6.1375 7.2875 6.03125 7.4125 5.85625C7.55 5.66875 7.71575 5.525 7.90975 5.425C8.10325 5.325 8.325 5.275 8.575 5.275ZM8.5 16C7.475 16 6.50625 15.803 5.59375 15.409C4.68125 15.0155 3.8845 14.4813 3.2035 13.8063C2.522 13.1313 1.9845 12.3375 1.591 11.425C1.197 10.5125 1 9.5375 1 8.5C1 7.4625 1.197 6.4875 1.591 5.575C1.9845 4.6625 2.522 3.86875 3.2035 3.19375C3.8845 2.51875 4.68125 1.98425 5.59375 1.59025C6.50625 1.19675 7.475 1 8.5 1C9.55 1 10.5313 1.19675 11.4438 1.59025C12.3563 1.98425 13.15 2.51875 13.825 3.19375C14.5 3.86875 15.0313 4.6625 15.4188 5.575C15.8063 6.4875 16 7.4625 16 8.5C16 9.5375 15.8063 10.5125 15.4188 11.425C15.0313 12.3375 14.5 13.1313 13.825 13.8063C13.15 14.4813 12.3563 15.0155 11.4438 15.409C10.5313 15.803 9.55 16 8.5 16Z" fill="#C5C5C5"/>
</svg>
