<svg width="18" height="18" viewBox="0 0 18 18" fill="none" xmlns="http://www.w3.org/2000/svg">
<path d="M5.25 16C4.8375 16 4.4845 15.8478 4.191 15.5434C3.897 15.2386 3.75 14.8722 3.75 14.4444V4.33333C3.5375 4.33333 3.35925 4.25893 3.21525 4.11011C3.07175 3.96078 3 3.77593 3 3.55556C3 3.33519 3.07175 3.15033 3.21525 3.001C3.35925 2.85219 3.5375 2.77778 3.75 2.77778H6.75C6.75 2.55741 6.822 2.37256 6.966 2.22322C7.1095 2.07441 7.2875 2 7.5 2H10.5C10.7125 2 10.8908 2.07441 11.0348 2.22322C11.1783 2.37256 11.25 2.55741 11.25 2.77778H14.25C14.4625 2.77778 14.6405 2.85219 14.784 3.001C14.928 3.15033 15 3.33519 15 3.55556C15 3.77593 14.928 3.96078 14.784 4.11011C14.6405 4.25893 14.4625 4.33333 14.25 4.33333V14.4444C14.25 14.8722 14.1033 15.2386 13.8098 15.5434C13.5158 15.8478 13.1625 16 12.75 16H5.25ZM6.75 12.1111C6.75 12.3315 6.822 12.5161 6.966 12.6649C7.1095 12.8142 7.2875 12.8889 7.5 12.8889C7.7125 12.8889 7.89075 12.8142 8.03475 12.6649C8.17825 12.5161 8.25 12.3315 8.25 12.1111V6.66667C8.25 6.4463 8.17825 6.26144 8.03475 6.11211C7.89075 5.9633 7.7125 5.88889 7.5 5.88889C7.2875 5.88889 7.1095 5.9633 6.966 6.11211C6.822 6.26144 6.75 6.4463 6.75 6.66667V12.1111ZM9.75 12.1111C9.75 12.3315 9.822 12.5161 9.966 12.6649C10.1095 12.8142 10.2875 12.8889 10.5 12.8889C10.7125 12.8889 10.8908 12.8142 11.0348 12.6649C11.1783 12.5161 11.25 12.3315 11.25 12.1111V6.66667C11.25 6.4463 11.1783 6.26144 11.0348 6.11211C10.8908 5.9633 10.7125 5.88889 10.5 5.88889C10.2875 5.88889 10.1095 5.9633 9.966 6.11211C9.822 6.26144 9.75 6.4463 9.75 6.66667V12.1111Z" fill="#A7A7A7"/>
</svg>
